# xmcd
#
# Track frame offsets: 
#        150
#        14192
#        33072
#        52768
#        69317
#        92878
#        118200
#        137687
#        152711
#        173981
#
# Disc length: 2528 seconds
#
# Revision: 0
# Processed by: cddbd v1.5.2PL0 Copyright (c) Steve Scherf et al.
# Submitted via: ExactAudioCopyFreeDBPlugin 1.0
#
DISCID=8109de0a
DTITLE=The Southern Brothers - Influences
DYEAR=2005
DGENRE=Gospel
TTITLE0=No Wonder I'm So Happy [3:07]
TTITLE1=God Knows [4:11]
TTITLE2=Did Angels Cry [4:22]
TTITLE3=Seek and Save [3:40]
TTITLE4=Walk Between the Lines [5:14]
TTITLE5=I Bowed on My Knees and Cried Holy [5:37]
TTITLE6=Favorite Song of All [4:19]
TTITLE7=This World Is Not My Home [3:20]
TTITLE8=Out of the Wilderness [4:43]
TTITLE9=I'm Going Home with Jesus [3:28]
EXTD=
EXTT0=
EXTT1=
EXTT2=
EXTT3=
EXTT4=
EXTT5=
EXTT6=
EXTT7=
EXTT8=
EXTT9=
PLAYORDER=
